<svg width="44" height="43" viewBox="0 0 44 43" fill="none" xmlns="http://www.w3.org/2000/svg">
<path d="M19.3332 2.42511C20.4226 0.217678 23.5704 0.217665 24.6598 2.42511L29.8473 12.9361L41.4469 14.6216C43.8829 14.9756 44.8556 17.9693 43.0929 19.6875L34.6994 27.8692L36.6808 39.4219C37.0969 41.8481 34.5504 43.6983 32.3715 42.5528L21.9965 37.0983L11.6216 42.5528C9.44268 43.6983 6.8961 41.8481 7.31223 39.4219L9.29367 27.8692L0.900151 19.6875C-0.862589 17.9693 0.1101 14.9756 2.54616 14.6216L14.1457 12.9361L19.3332 2.42511ZM21.9965 4.48518L17.0282 14.5521C16.5956 15.4287 15.7593 16.0363 14.7919 16.1769L3.6824 17.7912L11.7213 25.6272C12.4213 26.3095 12.7408 27.2926 12.5755 28.256L10.6778 39.3207L20.6145 34.0967C21.4797 33.6418 22.5133 33.6418 23.3786 34.0967L33.3153 39.3207L31.4175 28.256C31.2523 27.2926 31.5717 26.3095 32.2717 25.6272L40.3106 17.7912L29.2011 16.1769C28.2337 16.0363 27.3975 15.4287 26.9649 14.5521L21.9965 4.48518Z" fill="#121212"/>
</svg>
